# xmcd CD database file
#
# Track frame offsets:
#	150
#	17871
#	34452
#	48976
#	62824
#	77466
#	92706
#	108922
#	123634
#	139267
#
# Disc length: 1998 seconds
#
# Revision: 0
# Processed by: cddbd v1.4PL0 Copyright (c) Steve Scherf et al.
# Submitted via: CDex 1.40Beta8
#
DISCID=8607cc0a
DTITLE=Pat Haney - Wrong Rite of Passage
DYEAR=2000
DGENRE=Country
TTITLE0=Jealous of the River
TTITLE1=Hound Dog Poetry
TTITLE2=Dragging Green River Again
TTITLE3=Won't Be Over No Coal
TTITLE4=Early Fall
TTITLE5=Wrong Rite of Passage
TTITLE6=One More Trip on Susan
TTITLE7=I Should Have Danced With You
TTITLE8=Follow You
TTITLE9=I Wish I Had a Linda, Too
EXTD=YEAR: 2000 ID3G: 2
EXTT0=
EXTT1=
EXTT2=
EXTT3=
EXTT4=
EXTT5=
EXTT6=
EXTT7=
EXTT8=
EXTT9=
PLAYORDER=
